<?xml version="1.0" encoding="UTF-8" standalone="no"?>
<!-- Created with Inkscape (http://www.inkscape.org/) -->

<svg
   width="91.693619mm"
   height="86.944565mm"
   viewBox="0 0 91.693619 86.944565"
   version="1.1"
   id="svg1"
   xml:space="preserve"
   xmlns:inkscape="http://www.inkscape.org/namespaces/inkscape"
   xmlns:sodipodi="http://sodipodi.sourceforge.net/DTD/sodipodi-0.dtd"
   xmlns="http://www.w3.org/2000/svg"
   xmlns:svg="http://www.w3.org/2000/svg"><sodipodi:namedview
     id="namedview1"
     pagecolor="#ffffff"
     bordercolor="#000000"
     borderopacity="0.25"
     inkscape:showpageshadow="2"
     inkscape:pageopacity="0.0"
     inkscape:pagecheckerboard="0"
     inkscape:deskcolor="#d1d1d1"
     inkscape:document-units="mm" /><defs
     id="defs1" /><g
     inkscape:label="Camada 1"
     inkscape:groupmode="layer"
     id="layer1"
     transform="translate(-12.420766,-90.232671)"><path
       d="M 12.420767,90.232671 V 177.17723 H 104.11439 V 90.232671 Z m 46.2132,11.998229 c 1.017322,0 2.034771,0.38526 2.80603,1.15652 l 26.135873,26.13587 v 0.003 c 1.545165,1.54516 2.807064,4.593 2.807064,6.77581 v 23.8125 c 0,2.18281 -1.78594,3.96875 -3.96875,3.96875 h -25.4 v -8.17056 l 11.617895,-11.6179 c 0.584729,0.21696 1.214397,0.34158 1.875855,0.34158 2.989788,0 5.423958,-2.43417 5.423958,-5.42395 0,-2.98979 -2.43417,-5.42396 -5.423958,-5.42396 -2.989789,0 -5.423959,2.43417 -5.423959,5.42396 0,0.5715 0.08969,1.12162 0.253732,1.64021 l -8.323523,8.32404 V 127.6742 c 1.799164,-0.88357 3.042708,-2.73067 3.042708,-4.86585 0,-2.98979 -2.43417,-5.42396 -5.423958,-5.42396 -2.989789,0 -5.423959,2.43417 -5.423959,5.42396 0,2.13518 1.243544,3.98228 3.042709,4.86585 v 30.65963 l -8.368999,-8.36848 c 0.1905,-0.55298 0.299207,-1.14311 0.299207,-1.75958 0,-2.98979 -2.43417,-5.42396 -5.423958,-5.42396 -2.989789,0 -5.423959,2.43417 -5.423959,5.42396 0,2.98978 2.43417,5.42395 5.423959,5.42395 0.613832,0 1.20402,-0.1087 1.756998,-0.2992 l 10.749732,10.75025 h -24.41298 c -2.182811,0 -3.96875,-1.78594 -3.96875,-3.96875 v -23.8125 c 0,-2.18282 1.264544,-5.2333 2.807063,-6.77582 l 26.138457,-26.13628 c 0.771259,-0.77126 1.788191,-1.15652 2.805513,-1.15652 z"
       style="fill:#ed1c24;stroke-width:0.499999"
       id="path3" /></g></svg>
