<?xml version="1.0" encoding="UTF-8" standalone="no"?>
<!-- Created with Inkscape (http://www.inkscape.org/) -->

<svg
   width="81.578888mm"
   height="102.50118mm"
   viewBox="0 0 81.578888 102.50118"
   version="1.1"
   id="svg1"
   xml:space="preserve"
   xmlns="http://www.w3.org/2000/svg"
   xmlns:svg="http://www.w3.org/2000/svg"><defs
     id="defs1" /><g
     id="layer1"
     transform="translate(-120.44374,-92.725884)"><g
       id="g3"
       transform="translate(0,-6.5772086)"><g
         id="g4"><g
           id="g5"><path
             id="rect36"
             style="fill:#000000;stroke-width:0.499999"
             d="m 201.57736,99.323653 c -0.23832,0.0307 -0.54902,0.0911 -0.87488,0.173116 -0.66241,0.1668 -3.29075,0.298173 -5.95623,0.298173 h -4.77077 l -0.41082,0.793748 c -0.49878,0.96452 -0.60393,0.97954 -0.92605,0.13229 -0.13832,-0.3638 -0.41011,-0.66145 -0.60409,-0.66145 -0.19397,0 -1.29791,0.47478 -2.4536,1.05471 -1.1557,0.57992 -2.30013,1.05633 -2.543,1.05833 -0.24287,0.002 -0.77865,0.185 -1.19062,0.40618 -0.41198,0.22118 -1.07673,0.51572 -1.47691,0.65474 -0.64931,0.22555 -0.72761,0.3817 -0.72761,1.45004 0,1.30297 -0.0356,1.3447 -0.76223,0.8909 -0.68002,-0.42468 -1.25167,-0.13736 -1.47174,0.73949 -0.27219,1.08448 -1.2497,2.30532 -4.80953,6.00946 -3.52669,3.66964 -4.94653,5.95649 -5.24825,8.4031 -0.0293,0.23742 0.0232,0.71727 0.0232,0.71727 0,0 -0.0153,0.33892 0.0465,0.49144 0.13116,0.32396 0.47889,0.51681 0.65526,0.81856 0.28412,0.48609 0.48657,1.02263 0.63096,1.56683 0.0444,0.1672 0.0703,0.51418 0.0703,0.51418 v 0.31574 c 0.009,0.17871 0.0171,0.36205 0.0171,0.59686 0,0.57012 0.16936,2.07785 0.3762,3.35122 0.19508,1.20104 0.39476,2.73169 0.47956,3.60443 l 0.0238,-0.0103 0.30903,2.78122 c 1.49479,0.68613 3.02779,2.96198 3.03909,4.83433 0.007,1.16142 -0.7975,2.27103 -2.01487,2.77968 -1.93315,0.80772 -3.95091,0.36639 -5.61309,-1.2268 -0.56192,-0.53859 -0.61312,-0.77934 -0.52452,-2.47892 0.079,-1.51472 0.2204,-2.02219 0.72347,-2.59571 0.57085,-0.6508 1.64759,-1.20194 2.66754,-1.42472 l -0.22944,-1.95337 0.005,-0.003 c -0.0796,-0.47887 -0.15901,-1.08036 -0.25993,-2.02933 -0.18353,-1.72569 -0.47315,-3.91118 -0.64337,-4.85707 -0.10585,-0.5882 -0.1836,-1.01397 -0.22841,-1.33377 l -0.25528,-1.33221 c 0,0 -0.43937,-1.04336 -0.65474,-1.56683 -0.16045,-0.38997 -0.27585,-0.67592 -0.47491,-1.17254 -0.46233,-1.15339 -0.97059,-2.14015 -1.12964,-2.19315 -0.15905,-0.053 -0.54645,0.4508 -0.86093,1.11983 -0.49162,1.04589 -0.65402,1.19118 -1.15859,1.03559 -0.78736,-0.24278 -2.08284,-0.89616 -2.57142,-1.29707 -0.68005,-0.55803 -2.63304,-1.5636 -2.77037,-1.42627 -0.0719,0.0719 -0.0303,0.48124 0.0925,0.9095 0.27975,0.97543 -0.0661,1.96484 -0.68678,1.96422 -0.45905,-4.6e-4 -1.92702,-1.98642 -1.92702,-2.60707 0,-0.75564 -0.49491,-0.18929 -0.76222,0.87229 -0.36638,1.45313 -0.36795,3.08446 -0.008,4.6452 0.23969,1.03666 0.2149,1.22484 -0.19069,1.45521 -0.95121,0.54028 -3.00817,2.60089 -3.00809,3.01325 6e-5,0.37395 0.50571,0.42705 4.08554,0.43305 2.24708,0.004 4.17148,0.0927 4.27623,0.1974 0.25999,0.26 -0.92644,1.12859 -0.84336,2.55023 0,0 -0.0658,0.38724 0.031,0.53899 0.0875,0.13725 0.26989,0.20192 0.42995,0.23151 0.33884,0.0626 0.68702,-0.0664 1.02526,-0.13229 0.41633,-0.0811 0.99578,-0.29414 1.23094,-0.32246 0.0321,-0.004 0.0618,-0.007 0.0894,-0.008 v 5.2e-4 c 0.0828,-0.004 0.14634,0.005 0.19637,0.0238 0.0889,0.0338 0.13496,0.10117 0.17156,0.19637 0.20515,0.53461 -0.81244,2.36142 -1.75906,3.15794 -0.47917,0.4032 -1.14999,0.69505 -1.59887,0.69505 -0.7596,0 -0.7736,-0.0257 -0.7736,-1.4335 0,0 0.0468,-0.24269 0,-0.34933 -0.0433,-0.0988 -0.1332,-0.19239 -0.23771,-0.21911 -0.19002,-0.0486 -0.39313,-0.0121 -0.57102,0.14211 -1.81539,1.57423 -4.07372,2.19275 -4.99414,3.4307 -0.10559,0.14201 0.16564,0.71542 0.32465,1.29924 0.2915,1.07026 1.50444,2.56212 2.08308,2.56212 1.40949,0 1.78569,1.22808 0.85059,2.77812 -0.94841,1.57209 -0.93017,1.70116 0.31885,2.23656 0.63415,0.27182 1.37644,0.47495 1.64951,0.45165 0.34528,-0.0294 0.52226,0.15906 0.58136,0.61909 0.0467,0.3638 0.27786,0.81027 0.51366,0.99218 0.52824,0.40751 1.97149,0.43392 2.36265,0.0429 0.41072,-0.41072 3.78397,-0.0236 3.96772,0.45527 0.31043,0.80896 -0.2474,1.60061 -1.9327,2.74402 -2.04436,1.387 -4.47778,3.98861 -4.88549,5.22397 -0.40192,1.21784 -0.92153,1.0707 -1.70946,-0.48421 -0.59931,-1.18268 -0.63849,-1.414 -0.32453,-1.91771 0.95636,-1.53437 -0.16623,-4.74932 -2.04225,-5.84874 -2.03014,-1.18974 -5.34579,-0.7968 -6.36189,0.75396 -0.42897,0.65462 -0.43527,1.56562 -0.0186,2.93367 0.16759,0.55013 -1.20441,1.05436 -0.33331,2.38125 l 0.5302,0.72502 c 0.29175,0.39855 0.92273,0.91129 1.4025,1.13895 0.56446,0.26786 1.04076,0.78656 1.34927,1.47071 0.50652,1.12326 1.84237,2.45809 2.74815,2.74557 0.5415,0.17187 0.7658,1.071 0.30954,1.24075 -0.34755,0.12931 -2.18838,2.98186 -3.30057,5.11494 -0.91852,1.76165 -1.7539,4.97954 -1.7539,6.75462 0,0.62133 -0.26312,0.93268 -1.49138,1.76269 -0.82045,0.55443 -1.92229,1.37659 -2.44791,1.82779 -0.52561,0.4512 -1.53103,1.25611 -2.23449,1.78801 -1.46974,1.1113 -4.66598,4.72451 -5.47512,6.18877 -0.30184,0.54622 -0.83306,1.46311 -1.17977,2.03811 -0.29058,0.41676 -0.61598,1.23737 -0.36793,1.37666 1.10855,0.1928 5.095,-0.34222 7.53028,-1.09864 0.47737,-0.14827 0.6303,0.0339 1.14515,1.36891 0.32675,0.84732 0.81536,2.11587 1.08676,2.81844 0.77538,2.00729 1.61311,2.6546 1.97197,1.52393 0.0883,-0.27827 0.52693,-0.96339 0.97513,-1.52187 0.4482,-0.55847 1.10077,-1.46193 1.44901,-2.00763 0.87264,-1.36746 1.3483,-1.286 1.55546,0.2651 0.16482,1.23412 1.51145,4.35027 2.18488,5.05499 0.18833,0.19709 0.45394,0.8568 1.02939,1.12861 0.22494,0.10625 0.96807,-0.0702 1.45572,-0.37723 0.66177,-0.41669 1.78594,-1.52136 1.78594,-1.52136 l 1.33067,-1.26969 v -5.1e-4 c 0.0624,-0.0888 0.12325,-0.17661 0.18138,-0.262 v -5.2e-4 c 0.0581,-0.0854 0.11394,-0.16824 0.16588,-0.24753 v -5.2e-4 c 0.10401,-0.15878 0.19358,-0.30241 0.26148,-0.42064 0.039,-0.0679 0.0803,-0.13298 0.12299,-0.19482 v -5.2e-4 c 0.0213,-0.0308 0.0431,-0.0607 0.0651,-0.0899 v -5.1e-4 c 0.022,-0.0292 0.0447,-0.0578 0.0672,-0.0853 v -5.2e-4 c 0.045,-0.055 0.091,-0.10604 0.13695,-0.15348 0.23028,-0.23757 0.46397,-0.37586 0.61495,-0.36586 v 5.1e-4 c 0.0161,0.001 0.0319,0.004 0.046,0.008 0.0188,0.006 0.0353,0.0151 0.0501,0.0274 0.007,0.006 0.0149,0.014 0.0212,0.0217 v 5.2e-4 c 0.006,0.008 0.0124,0.0155 0.0176,0.0248 v 5.2e-4 c 0.005,0.009 0.009,0.02 0.0134,0.031 v 5.1e-4 c 0.0119,0.0334 0.0181,0.0744 0.0181,0.12351 0,0.0152 0.004,0.0332 0.0114,0.0558 v 5.2e-4 c 0.007,0.0226 0.0174,0.0487 0.031,0.078 v 5.2e-4 c 0.0273,0.059 0.0673,0.13073 0.11782,0.2129 v 5.2e-4 c 0.0506,0.0823 0.11208,0.17468 0.1819,0.27492 v 5.1e-4 c 0.0699,0.10028 0.14841,0.20791 0.23358,0.32092 v 5.1e-4 c 0.0852,0.11303 0.17737,0.23093 0.27389,0.3514 v 5.2e-4 c 0.0965,0.12048 0.1979,0.24322 0.30179,0.36587 v 5.1e-4 c 0.1039,0.12265 0.21104,0.24478 0.31832,0.36432 v 5.2e-4 c 0.10728,0.11954 0.21527,0.23611 0.32195,0.34727 0.20638,0.21503 0.36625,0.44317 0.43925,0.61288 v 5.2e-4 c 0.007,0.0168 0.0136,0.033 0.0191,0.0486 v 5.2e-4 c 0.005,0.0155 0.0108,0.0318 0.0145,0.046 0.007,0.0277 0.0101,0.0522 0.01,0.0739 -1e-5,6.4e-4 2e-5,6.8e-4 0,0.002 v 5.2e-4 c -6.2e-4,0.022 -0.005,0.0407 -0.015,0.0553 -0.005,0.007 -0.0117,0.0158 -0.0212,0.0253 -0.0473,0.0478 -0.15454,0.12233 -0.30437,0.21342 -0.11986,0.0729 -0.26678,0.15659 -0.43253,0.24598 -0.24863,0.1341 -0.53916,0.28095 -0.84181,0.42426 -0.22008,0.1042 -0.57279,0.52585 -0.67541,0.70642 -0.6017,1.05875 -0.87397,1.31871 -1.85105,1.62677 l -1.51051,0.33177 -1.88515,0.7276 -0.004,-0.005 c -0.11415,0.0312 -0.24652,0.0536 -0.41289,0.0698 -0.46781,0.0456 -0.8506,0.23334 -0.8506,0.41703 0,0.48705 1.1343,1.47396 2.0159,1.75389 l 5.2e-4,-5.1e-4 c 0.42216,0.1341 3.18249,0.17822 6.1867,0.0987 4.25881,-0.11278 5.86459,-0.25942 7.47603,-0.68213 3.51607,-0.92234 4.13277,-1.87343 3.29799,-5.08186 -0.50099,-1.92544 -0.4709,-4.38065 0.0801,-6.50968 0.13183,-0.50933 0.31122,-1.82488 0.39842,-2.92334 0.0872,-1.09846 0.25689,-2.15705 0.37724,-2.35179 0.12036,-0.19475 1.03518,-0.51381 2.03295,-0.70952 2.62214,-0.51433 9.70281,-1.4242 11.08459,-1.4242 1.77338,0 1.47373,-0.53412 -0.87023,-1.55081 -1.12763,-0.48911 -3.03833,-1.3793 -4.24625,-1.97869 -1.95903,-0.97211 -2.18031,-1.15524 -2.04484,-1.69499 0.17417,-0.69393 1.61762,-3.01777 3.09646,-4.98574 1.48243,-1.97274 1.41887,-2.07 -1.22112,-1.86707 -1.22823,0.0943 -2.29339,0.0736 -2.36729,-0.046 -0.0739,-0.11962 0.28208,-0.68499 0.79168,-1.25677 1.42249,-1.59599 1.80327,-2.22491 1.51929,-2.50889 -0.13823,-0.13823 -2.2097,-0.34063 -4.60334,-0.44959 l -4.35219,-0.19792 -0.077,-2.05052 -0.077,-2.05052 1.79731,-0.005 c 1.7272,-0.005 4.33883,-0.37282 7.54011,-1.06143 l 1.51102,-0.32453 1.3627,1.22473 c 0.74934,0.67372 1.59024,1.22473 1.86914,1.22473 0.58025,0 1.0668,-1.02884 1.0728,-2.26756 0.003,-0.69286 0.16527,-0.88749 1.10175,-1.32292 1.33548,-0.62094 1.4949,-1.21583 0.55913,-2.08307 l -0.70745,-0.65629 0.55708,-0.90124 c 0.30633,-0.49565 0.55655,-1.02147 0.55655,-1.16892 0,-0.14745 -0.53577,-0.40304 -1.19062,-0.56793 -1.12603,-0.28354 -1.19063,-0.34993 -1.19063,-1.22214 0,-1.02927 -0.33628,-1.15991 -1.28106,-0.49816 -0.33283,0.23313 -0.62722,0.38193 -0.65422,0.33073 -0.85083,-1.61597 -1.32884,-1.65162 -2.0345,-0.15038 -0.76016,1.61717 -1.91185,2.68088 -2.69441,2.4877 -0.33635,-0.083 -1.32623,-0.33473 -2.19935,-0.55914 -0.87313,-0.2244 -2.02887,-0.41038 -2.56884,-0.41238 -0.57517,-0.002 -1.12304,-0.17869 -1.32291,-0.42581 -1.08795,-1.34508 -1.67123,-1.72577 -2.58021,-1.68517 -0.51485,0.023 -1.06567,0.0301 -1.22421,0.016 -0.42453,-0.0377 -0.90279,-1.24207 -0.90279,-2.27428 0,-0.76786 0.17347,-1.02 1.17254,-1.70739 0.64468,-0.44355 1.3372,-0.80667 1.53944,-0.80667 0.20223,0 0.76697,0.35676 1.2547,0.7922 0.81275,0.72562 2.68282,1.58682 4.35736,2.00711 0.5833,0.14642 0.67179,0.0829 0.67179,-0.48162 0,-0.60595 1.38462,-2.84685 1.75907,-2.84685 0.35796,0 1.73507,1.6645 1.99574,2.41225 0.15087,0.43279 0.39902,0.74533 0.55139,0.69453 0.69142,-0.23047 1.78963,-2.82309 2.08721,-4.92734 0.2433,-1.72044 0.41944,-2.23531 0.84181,-2.46135 0.888,-0.47525 3.17966,-0.75843 4.6545,-0.76843 0.87118,-0.006 1.53846,-0.11747 1.60403,-0.54777 0.0919,-0.603 -2.14689,-2.43451 -3.2768,-3.21118 -1.17974,-0.81093 -0.85599,-1.04641 1.29243,-0.93792 1.44067,0.0728 1.78369,0.25342 1.98437,-0.22273 0.13746,-0.32614 -0.8423,-0.86782 -1.87172,-1.53375 -1.02943,-0.66593 -1.82463,-1.35641 -1.76733,-1.53428 0.0573,-0.17786 0.72103,-0.4343 1.47485,-0.56999 0.83998,-0.15121 1.38699,-0.41593 1.38699,-0.63148 0,-0.25572 -0.41955,-0.57696 -1.14101,-0.47181 -1.98126,0.28875 -3.44653,0.56137 -3.56051,0.23926 -0.0617,-0.17448 0.20983,-0.59119 0.60358,-0.92604 1.26561,-1.07626 1.71006,-1.35343 2.24585,-1.94666 0.28495,-0.31548 -0.22317,-0.69659 -0.55707,-0.69659 -1.82943,0 -4.47866,-0.59997 -6.0079,-1.44436 -1.80037,-0.99411 -1.9666,-1.36631 -1.2392,-2.77295 0.22787,-0.44065 0.44173,-1.11905 0.47543,-1.50792 0.0454,-0.52362 -8.12375,-0.27637 -7.48378,-1.29708 0.48223,-0.76912 5.53241,-1.22007 6.90424,-0.83699 1.03524,0.28909 1.95638,-0.46802 2.33681,0.27182 0.28951,0.56302 0.85347,0.98073 1.31025,1.41473 0.69285,0.65832 0.87159,0.72409 1.07849,0.39687 0.13641,-0.21573 0.25018,-0.53325 0.25218,-0.7059 0.005,-0.35394 4.54096,-2.57627 6.13502,-3.0055 1.25934,-0.33911 1.38063,-0.60542 0.89814,-1.97249 -0.44702,-1.2666 -0.18721,-1.67741 0.78135,-1.2361 1.01194,0.46107 1.10203,0.40761 1.28984,-0.76687 0.0948,-0.59257 0.38535,-1.39624 0.64596,-1.78594 0.2606,-0.38969 0.85614,-1.2813 1.32291,-1.98128 0.46678,-0.69999 1.1345,-2.25988 1.48415,-3.46645 0.7979,-2.7534 1.12404,-3.53165 2.49649,-5.95364 0.60732,-1.07174 1.04592,-2.006712 0.97462,-2.077912 -0.0356,-0.0354 -0.20132,-0.03448 -0.43925,-0.0036 l -5.2e-4,-5.17e-4 z m -6.22494,3.661277 c 0.18102,-0.0181 0.23719,0.0657 0.23719,0.28629 0,0.59008 -1.67126,5.69776 -1.98282,6.06009 -0.15384,0.17891 -0.42338,0.7478 -0.59945,1.26452 -0.17606,0.51671 -0.62617,1.29308 -0.99994,1.72548 l -0.67954,0.78651 -1.10588,-0.58187 c -0.60827,-0.31984 -1.35715,-0.73238 -1.66398,-0.91726 -0.4475,-0.26965 -0.60857,-0.28553 -0.81545,-0.0785 -0.20692,0.20689 -0.18792,0.36899 0.0982,0.81907 1.14509,1.8018 1.80749,3.15925 1.70016,3.48558 -0.0659,0.20021 -0.6507,0.58945 -1.29967,0.86558 -0.64895,0.27614 -1.52505,0.71542 -1.94665,0.97617 -1.01569,0.62816 -1.24589,0.60104 -1.87224,-0.22014 -0.51193,-0.67117 -2.26739,-1.97766 -2.65771,-1.97766 -0.10641,0 -0.15968,0.6162 -0.11938,1.38751 0.0677,1.29647 0.0455,1.38151 -0.33848,1.30431 -0.9844,-0.198 -5.15848,-0.0121 -6.3009,0.28061 -0.67829,0.17378 -0.8738,0.32853 -1.38597,0.42323 -0.64271,0.11889 -1.31582,0.7045 -1.44745,0.20102 l -0.005,-0.72089 c -0.01,-1.35217 1.49993,-3.57597 4.56871,-6.7293 0.7977,-0.81967 1.73751,-1.92766 2.08773,-2.4629 0.35024,-0.53525 0.77957,-1.00096 0.95395,-1.03456 0.17437,-0.0336 0.58936,0.21723 0.92294,0.55707 0.5982,0.60947 1.32602,0.8355 1.32602,0.41186 0,-0.11964 -0.1018,-0.87132 -0.22583,-1.6707 -0.26216,-1.68963 -0.31708,-1.61634 1.66863,-2.21692 0.737,-0.2229 1.65631,-0.63899 2.04329,-0.92449 0.38699,-0.28551 0.78581,-0.51935 0.88677,-0.51935 0.10097,0 0.57997,0.4374 1.06401,0.97204 0.7633,0.8431 0.92397,0.93584 1.20975,0.69866 0.18123,-0.15041 0.38758,-0.58459 0.45888,-0.9648 0.0713,-0.3802 0.2364,-0.77549 0.36587,-0.8785 0.12946,-0.10301 1.34429,-0.23869 2.70061,-0.30179 1.35633,-0.0631 2.6742,-0.17818 2.92851,-0.25528 0.0903,-0.0275 0.16501,-0.0446 0.22531,-0.0506 z m -38.44779,38.95576 c 0.0381,-10e-4 0.079,5e-4 0.12351,0.003 0.11869,0.007 0.26122,0.0253 0.43408,0.0543 1.14743,0.19269 2.31945,0.53421 3.21583,0.93638 0.40052,0.17969 0.84218,0.32659 0.98185,0.32659 0.40313,0 0.29564,1.32446 -0.18397,2.2624 -0.24114,0.47158 -0.70412,1.1434 -1.02888,1.49293 -0.39753,0.42786 -0.82318,0.63562 -1.30224,0.63562 -0.28069,0 -0.49431,-0.0476 -0.64182,-0.13798 -0.45074,-0.0658 -0.28938,-1.39911 -0.68213,-1.59215 -0.80845,-0.39734 -2.34825,0.0557 -2.36885,-0.84491 -0.006,-0.25021 0.49866,-1.2054 0.59066,-1.51567 0.19891,-0.67109 0.29434,-1.03691 0.37104,-1.21543 0.006,-0.0339 0.0156,-0.0682 0.0289,-0.10283 0.0783,-0.20405 0.19546,-0.29579 0.46198,-0.30179 z m -6.57427,7.55354 c 0.71017,-7e-5 1.44875,0.20919 2.10116,0.59532 1.63648,0.9687 2.31969,2.77726 1.52601,4.03954 -0.79363,1.26235 -2.7637,1.50042 -4.40025,0.53175 -1.63648,-0.9687 -2.31969,-2.77726 -1.52601,-4.03954 0.44672,-0.71049 1.2964,-1.12702 2.29909,-1.12707 z m 19.68975,18.70997 1.88619,0.41445 c 1.98257,0.43564 2.74299,0.89139 2.74299,1.64279 0,0.24879 -0.54818,1.23244 -1.21853,2.18592 -1.48258,2.10871 -1.35105,2.18919 1.84485,1.12447 2.41893,-0.80586 3.03617,-0.75601 2.52232,0.20413 -0.14357,0.26827 -0.40343,0.63113 -0.57774,0.80667 -0.17431,0.17554 -0.70231,1.10408 -1.17305,2.06395 l -0.85577,1.74563 1.97921,0.92759 c 2.01325,0.94346 2.56235,1.39122 2.07584,1.69189 -0.14925,0.0922 -1.43368,0.30279 -2.8546,0.46819 -1.4209,0.16541 -3.25438,0.45676 -4.07469,0.64699 -0.8203,0.19024 -1.7649,0.34623 -2.09858,0.34623 -0.33368,0 -1.05016,0.17743 -1.59215,0.39429 -0.81683,0.32681 -0.96143,0.48102 -0.84543,0.90124 0.32933,1.19318 0.67348,3.74459 0.54881,4.06952 -0.11565,0.30136 -0.42858,0.27122 -2.13527,-0.20723 -4.61727,-1.29469 -6.46033,-1.64384 -6.7908,-1.28674 -0.17014,0.18385 -0.70897,1.47238 -1.19683,2.86339 -0.69495,1.98145 -1.11281,2.77526 -1.93011,3.66541 -0.57375,0.62489 -1.15594,1.13637 -1.29347,1.13637 -0.76928,0 -2.8861,-5.72732 -3.16673,-7.59592 -0.36113,-2.40456 -3.63787,1.02251 -4.36013,2.14977 -0.72072,0.77571 -1.21808,1.61069 -1.84548,-0.58529 l -0.6404,-1.73964 c -1.20075,-0.24556 -2.29882,0.0129 -3.57454,0.33435 -2.75262,0.6746 -2.90844,0.42203 -1.20096,-1.94872 1.44865,-2.01138 4.44599,-4.91629 6.52622,-6.32468 0.90512,-0.6128 1.75241,-1.11414 1.88309,-1.11414 0.13069,0 0.46852,0.31179 0.75034,0.69298 0.78142,1.05693 2.35131,1.6985 4.5775,1.87017 2.29788,0.1772 2.78066,0.0229 5.33507,-1.7017 3.53901,-2.3894 5.46492,-4.11491 9.65833,-8.65632 z" /><path
             style="fill:none;stroke:#000000;stroke-width:2;stroke-linecap:round;stroke-dasharray:none"
             d="m 147.17528,153.77495 c 0,0 -6.43306,4.01697 -7.88419,5.79149 -1.35526,1.65729 -2.40231,3.82336 -3.22911,5.79814 -0.60313,1.44056 -0.81272,3.02178 -1.05834,4.56406 -0.23672,1.4864 -0.0906,3.02427 -0.39687,4.49792 -0.45393,2.1845 -1.00564,4.41514 -2.11667,6.35 -1.0814,1.88325 -2.61063,3.52957 -4.29948,4.89479 -2.00354,1.6196 -6.74687,3.77031 -6.74687,3.77031"
             id="path1" /></g></g></g></g></svg>
