<?xml version="1.0" encoding="UTF-8" standalone="no"?>
<!-- Created with Inkscape (http://www.inkscape.org/) -->

<svg
   width="63.500008mm"
   height="61.852039mm"
   viewBox="0 0 63.500008 61.852039"
   version="1.1"
   id="svg1"
   xml:space="preserve"
   xmlns="http://www.w3.org/2000/svg"
   xmlns:svg="http://www.w3.org/2000/svg"><defs
     id="defs1" /><g
     id="layer1"
     transform="translate(-124.42167,-91.271497)"><path
       d="m 156.17271,91.271498 c -1.01732,0 -2.03425,0.38526 -2.80551,1.15652 l -26.13846,26.135872 c -1.54252,1.54252 -2.80706,4.593 -2.80706,6.77582 v 23.8125 c 0,2.18281 1.78594,3.96875 3.96875,3.96875 h 24.41298 l -10.74973,-10.75025 c -0.55298,0.1905 -1.14317,0.2992 -1.757,0.2992 -2.98979,0 -5.42396,-2.43417 -5.42396,-5.42395 0,-2.98979 2.43417,-5.42396 5.42396,-5.42396 2.98979,0 5.42396,2.43417 5.42396,5.42396 0,0.61647 -0.10871,1.2066 -0.29921,1.75958 l 8.369,8.36848 v -30.65963 c -1.79916,-0.88357 -3.04271,-2.73067 -3.04271,-4.86585 0,-2.98979 2.43417,-5.42396 5.42396,-5.42396 2.98979,0 5.42396,2.43417 5.42396,5.42396 0,2.13518 -1.24355,3.98228 -3.04271,4.86585 v 21.50257 l 8.32352,-8.32404 c -0.16404,-0.51859 -0.25373,-1.06871 -0.25373,-1.64021 0,-2.98979 2.43417,-5.42396 5.42396,-5.42396 2.98979,0 5.42396,2.43417 5.42396,5.42396 0,2.98978 -2.43417,5.42395 -5.42396,5.42395 -0.66146,0 -1.29113,-0.12462 -1.87585,-0.34158 l -11.6179,11.6179 v 8.17056 h 25.4 c 2.18281,0 3.96875,-1.78594 3.96875,-3.96875 v -23.8125 c 0,-2.18281 -1.2619,-5.23065 -2.80706,-6.77581 v -0.003 L 158.97874,92.428018 c -0.77126,-0.77126 -1.7887,-1.15652 -2.80603,-1.15652 z"
       style="fill:#1d2126"
       id="path4" /></g></svg>
